<?xml version="1.0" encoding="UTF-8"?>
<svg id="Layer_2" data-name="Layer 2" xmlns="http://www.w3.org/2000/svg" viewBox="0 0 530.99 248.14">
  <g id="Layer_1-2" data-name="Layer 1">
    <g>
      <path d="M440.49,245.66c2.33,1.63,5.05,2.47,8.99,2.47,6.22,0,10.5-2.89,10.5-7.87s-3.08-6.57-7.6-6.99l-4.12-.39c-3.09-.29-4.52-1.39-4.52-3.72,0-2.73,2.09-4.25,5.74-4.25,2.2,0,4.06.5,5.75,1.39.63.34,1.02.5,1.44.5.47,0,.86-.18,1.21-.55.24-.29.43-.71.43-1.02,0-.37-.05-.63-.3-.97-.24-.32-.6-.61-1.28-.95-2.01-1.02-4.32-1.63-7.19-1.63-5.51,0-9.46,2.89-9.46,7.59,0,4.25,2.7,6.48,7.69,6.91l4.24.39c2.92.26,4.28,1.44,4.28,3.75,0,3.04-2.48,4.54-6.84,4.54-2.85,0-4.92-.6-6.77-1.94-.68-.5-1.26-.73-1.73-.73-.42,0-.81.13-1.1.39-.39.37-.6.86-.6,1.31,0,.71.52,1.29,1.26,1.79h0ZM422.7,221.71c-3.15,0-5.64,1.15-7.42,2.94-2.67,2.73-3.17,6.29-3.17,10.28s.5,7.55,3.17,10.28c1.78,1.78,4.27,2.94,7.42,2.94s5.64-1.15,7.42-2.94c2.67-2.73,3.17-6.32,3.17-10.28s-.5-7.55-3.17-10.28c-1.78-1.78-4.27-2.94-7.42-2.94ZM422.7,244.73c-1.91,0-3.41-.6-4.67-1.86-1.81-1.81-2.1-4.96-2.1-7.94s.29-6.11,2.1-7.92c1.26-1.26,2.75-1.89,4.67-1.89s3.41.63,4.67,1.89c1.81,1.81,2.1,4.93,2.1,7.92s-.29,6.13-2.1,7.94c-1.26,1.26-2.75,1.86-4.67,1.86ZM387.03,234.92c0,8.79,4.82,13.2,11.4,13.2,2.62,0,4.54-.71,6.29-2.1,1.1-.84,1.84-1.53,1.84-2.47,0-.45-.21-.89-.55-1.23-.31-.29-.73-.47-1.18-.47-.58,0-1.21.45-1.84,1-1.63,1.43-2.86,1.88-4.56,1.88-2.52,0-4.54-.97-5.9-2.88-1.21-1.7-1.68-3.67-1.68-6.92s.47-5.23,1.68-6.94c1.36-1.93,3.38-2.87,5.9-2.87,1.7,0,2.86.45,4.56,1.86.87.73,1.26,1.01,1.84,1.01.45,0,.87-.18,1.18-.47.34-.34.55-.79.55-1.23,0-.94-.6-1.48-1.84-2.45-1.86-1.47-3.67-2.12-6.29-2.12-6.58,0-11.4,4.39-11.4,13.21h0ZM374.33,212.35c0,1.44,1.15,2.6,2.6,2.6s2.6-1.15,2.6-2.6-1.15-2.6-2.6-2.6-2.6,1.15-2.6,2.6ZM378.84,224.38c0-.92-.05-1.28-.34-1.76-.29-.47-.86-.81-1.57-.81s-1.28.34-1.57.81c-.29.47-.34.84-.34,1.76v21.08c0,.92.05,1.28.34,1.76.29.47.87.81,1.57.81s1.28-.34,1.57-.81c.29-.47.34-.84.34-1.76v-21.08ZM363.1,212.85c0-.92-.05-1.28-.34-1.76-.29-.47-.87-.81-1.57-.81s-1.28.34-1.57.81c-.29.47-.34.84-.34,1.76v28.05c0,3.83,2.18,6.92,6.55,6.92h.68c.87,0,1.36-.1,1.7-.31.45-.29.71-.73.71-1.34s-.26-1.05-.71-1.34c-.34-.21-.84-.31-1.7-.31-2.33,0-3.41-1.39-3.41-3.75v-27.92ZM346.89,213.65c-.45.68-.6,1.05-.63,1.49-.03.6.26,1.13.87,1.5.31.21.63.29.94.29.37,0,.66-.1.94-.31.31-.24.58-.61.87-1.08l2.67-4.28c.45-.68.6-1.05.63-1.49.03-.6-.26-1.13-.87-1.5-.31-.21-.63-.29-.94-.29-.37,0-.66.1-.94.31-.31.24-.58.61-.87,1.08l-2.67,4.28ZM349.77,224.38c0-.92-.05-1.28-.34-1.76-.29-.47-.86-.81-1.57-.81s-1.28.34-1.57.81c-.29.47-.34.84-.34,1.76v21.08c0,.92.05,1.28.34,1.76.29.47.87.81,1.57.81s1.28-.34,1.57-.81c.29-.47.34-.84.34-1.76v-21.08ZM327.53,224.38c0-.92-.05-1.28-.34-1.76-.29-.47-.86-.81-1.57-.81s-1.28.34-1.57.81c-.29.47-.34.84-.34,1.76v21.08c0,.92.05,1.28.34,1.76.29.47.87.81,1.57.81s1.29-.34,1.57-.81c.29-.47.34-.84.34-1.76v-13.38c0-4.06,2.41-6.96,6.24-6.96,1.18,0,2.25.34,3.22.92.94.57,1.36.75,1.81.75.5,0,.97-.21,1.31-.55.31-.31.55-.84.55-1.34,0-.85-.66-1.45-1.44-1.95-1.39-.87-2.81-1.23-4.64-1.23-2.83,0-5.61,1.3-7.05,3.4v-.73ZM296.58,234.92c0,8.79,4.82,13.2,11.4,13.2,2.62,0,4.54-.71,6.29-2.1,1.1-.84,1.84-1.53,1.84-2.47,0-.45-.21-.89-.55-1.23-.31-.29-.73-.47-1.18-.47-.58,0-1.21.45-1.84,1-1.63,1.43-2.86,1.88-4.56,1.88-2.52,0-4.54-.97-5.9-2.88-1.21-1.7-1.68-3.67-1.68-6.92s.47-5.23,1.68-6.94c1.36-1.93,3.38-2.87,5.9-2.87,1.7,0,2.86.45,4.56,1.86.87.73,1.26,1.01,1.84,1.01.45,0,.87-.18,1.18-.47.34-.34.55-.79.55-1.23,0-.94-.6-1.48-1.84-2.45-1.86-1.47-3.67-2.12-6.29-2.12-6.58,0-11.4,4.39-11.4,13.21h0ZM277.24,216.7l7.03,19.22h-14.08l7.05-19.22ZM262.85,244.73c-.37,1-.63,1.91.16,2.7.37.37.89.6,1.47.6.39,0,.73-.13,1.02-.34.42-.34.6-.63.97-1.6l2.46-6.71h16.6l2.46,6.71c.37.97.55,1.26.97,1.6.29.21.63.34,1.02.34.58,0,1.1-.24,1.47-.6.79-.79.55-1.7.18-2.7l-12.11-32.35c-.29-.79-.5-1.1-.79-1.44-.37-.39-.84-.66-1.49-.66s-1.13.26-1.49.66c-.29.34-.5.68-.79,1.44l-12.11,32.35Z"/>
      <path d="M49.84,81.35c-2.05,0-3.74.95-4.61,2.35-.89,1.39-1.03,2.34-1.03,5.29v64.2c0,15.41-7.77,24.05-21.41,24.05-5.19,0-8.93-1.11-12.96-3.95-2.05-1.47-3.53-2.13-5.06-2.13-1.32,0-2.42.44-3.45,1.53-.87.97-1.32,2.21-1.32,3.6,0,1.98.95,3.37,2.93,4.83,5.64,4.18,11.96,6.08,19.86,6.08,19.15,0,32.69-12.46,32.69-32.54v-65.67c0-2.95-.13-3.9-1.03-5.29-.87-1.4-2.56-2.35-4.61-2.35"/>
      <path d="M204.96,91.04c11.59,0,19.73,6.37,23.47,17.44.66,1.98,1.45,3.66,2.64,4.69.79.74,1.98,1.16,3.45,1.16,1.4,0,2.71-.43,3.74-1.45,1.03-1.03,1.45-2.27,1.45-4.11,0-3.37-2.27-9.9-6.67-15.17-5.93-7.27-14.51-12.54-28-12.54-10.7,0-19.57,3.82-25.95,10.27-9.9,9.96-10.64,18.84-10.64,42.81s.74,32.83,10.64,42.81c6.38,6.45,15.25,10.25,25.95,10.25,13.49,0,22.07-5.27,28-12.52,4.4-5.29,6.67-11.8,6.67-15.17,0-1.84-.43-3.08-1.45-4.11-1.03-1.03-2.34-1.47-3.74-1.47-1.47,0-2.66.45-3.45,1.18-1.18,1.03-1.98,2.71-2.64,4.69-3.74,11.07-11.88,17.44-23.47,17.44-7.03,0-13.12-2.56-17.89-7.48-6.67-6.82-7.33-14.51-7.33-35.62s.66-28.81,7.33-35.64c4.77-4.9,10.85-7.46,17.89-7.46"/>
      <path d="M310.75,138.96c13.49-2.85,22.81-12.75,22.81-28,0-18.02-12.83-29.03-31.08-29.03h-33.35c-1.76,0-3.74,0-5.29,1.55-1.53,1.53-1.53,3.53-1.53,5.27v90.53c0,2.93.13,3.88,1.03,5.27.87,1.4,2.56,2.35,4.61,2.35s3.74-.95,4.61-2.35c.89-1.4,1.03-2.35,1.03-5.27v-87.38h27.87c12.17,0,20.81,6.45,20.81,19.2s-8.64,19.05-20.81,19.05h-15.6v.02c-2.62.09-4.72,2.23-4.72,4.87s2.1,4.78,4.72,4.87v.07h12.6l24.18,42.3c1.4,2.42,2.85,4.61,5.72,4.61.87,0,1.98-.29,2.87-.8,1.82-1.03,2.85-2.58,2.85-4.34,0-1.45-.37-2.69-1.68-5.06l-21.63-37.75Z"/>
      <path d="M360.61,81.35c-2.05,0-3.74.95-4.61,2.35-.89,1.39-1.03,2.34-1.03,5.29v90.3c0,2.93.13,3.88,1.03,5.27.87,1.4,2.56,2.35,4.61,2.35s3.74-.95,4.61-2.35c.89-1.4,1.03-2.35,1.03-5.27v-90.3c0-2.95-.13-3.9-1.03-5.29-.87-1.4-2.56-2.35-4.61-2.35"/>
      <path d="M455.68,177.23c-1.09-.66-2.06-.87-4.83-.87h-46.78v-87.38c0-2.95-.14-3.9-1.03-5.29-.87-1.4-2.56-2.34-4.61-2.34s-3.74.95-4.61,2.34c-.89,1.4-1.03,2.35-1.03,5.29v90.51c0,1.76,0,3.74,1.53,5.29,1.55,1.53,3.53,1.53,5.29,1.53h51.24c2.77,0,3.74-.21,4.83-.87,1.32-.89,2.13-2.34,2.13-4.11s-.81-3.24-2.13-4.11"/>
      <path d="M463.16,76.56c.13.61.37,1.19.74,1.73.81,1.22,2.33,2,3.92,2s3.11-.78,3.89-2c.71-1.05.98-2.1.98-3.89v-33.56c0-3.92-.78-7.34-2.3-10.15-3.38-6.26-10.35-9.54-20.16-9.54-.78,0-1.49.03-2.2.07-.31,0-.54.03-.85.03.41-.37.81-.78,1.25-1.18,8.12-7.41,18.54-11.5,29.43-11.5,1.02,0,2.02.04,3.04.12.29.06.59.1.91.1,2.37,0,4.29-1.92,4.29-4.29s-1.92-4.29-4.29-4.29c-.1,0-.19.02-.28.03v-.03c-1.22-.09-2.43-.2-3.66-.2-20.2,0-38.36,11.23-47.46,29.3-.03.1-.07.17-.13.34l.68.24-.74-.07c-.34.91-.71,2.33-.58,3.65.14,1.35.74,2.44,1.79,3.04.03.07.1.1.17.13.64.3,1.42.47,2.16.47.44,0,1.08-.03,1.69-.27.24-.07.44-.2.64-.3l.2-.1s.1-.07.17-.1c.1,0,.14-.03.2-.1.24-.13.44-.27.68-.47.24-.2.47-.41.71-.64,3.42-3.48,5.99-5.04,12.18-5.04,9.03,0,12.69,3.52,12.69,12.08l.03,3.21h-15.77c-5.75,0-10.66,1.39-14.18,4.03-.07.03-.13.1-.2.13-.44.34-.85.68-1.29,1.08l-.58.61s-.07.03-.07.07c-.2.2-.37.37-.58.61-.2.24-.37.47-.61.85l.07.07c-.07,0-.1.07-.17.1l-.03-.03c-.27.37-.51.71-.68,1.05,0,0-.03.03-.03.07-.03.03-.07.07-.07.1-1.29,2.06-2.06,4.5-2.33,7.21l-.07,1.05c-.03.3-.03.61-.03.91,0,.91.07,1.76.17,2.6.03.1.03.17.03.27,1.86,13.26,16.48,14.11,16.48,14.11.54.03,1.15.1,1.76.13,1.15.1,2.4.14,3.69.14,3.48,0,6.43-.37,8.97-1.15,2.13-.64,3.99-1.59,5.72-2.81M448.47,71.55c-10.79,0-12.18-4.6-12.18-8.59,0-2.23.54-4.06,1.56-5.41,1.73-2.33,5.01-3.48,9.71-3.48h15.39v4.97c0,1.96-.17,3.72-.54,5.14-.41,1.66-1.05,2.94-1.89,3.76-1.69,1.66-3.65,2.64-6.26,3.15-1.99.41-4.06.47-5.78.47Z"/>
      <path d="M518.91,19.42c-.32-.54-.74-.99-1.24-1.35t-.03-.03c-.54-.33-1.14-.6-1.78-.67-.27-.07-.54-.1-.81-.1-2.55,0-4.6,2.05-4.6,4.6,0,1.34.57,2.5,1.47,3.33,6.21,7.77,9.96,17.51,9.96,27.92,0,10.93-3.99,21.42-11.16,29.6-2.57,2.91-5.48,5.48-8.73,7.65-.54.37-1.12.74-1.69,1.05,2.47-4.53,3.82-9.98,3.82-16.17V9.23c0-2.98-2.4-5.38-5.41-5.38s-5.38,2.4-5.38,5.38v64.58c0,14.72-7.41,22.97-20.43,22.97-4.97,0-8.52-1.05-12.38-3.75-1.96-1.42-3.38-2.06-4.84-2.06-1.25,0-2.3.44-3.28,1.49-.85.91-1.25,2.1-1.25,3.42,0,1.89.88,3.25,2.78,4.63,0,0,.03,0,.03.03.03,0,.03.03.07.03,6.63,3.35,14.01,5.31,21.69,5.62.71.07,1.45.07,2.16.07,13.77,0,26.83-5.28,36.77-14.82,3.82-3.65,7.07-7.88,9.67-12.55,4.36-7.82,6.67-16.71,6.67-25.78,0-12.71-4.48-24.48-12.07-33.69"/>
      <path d="M139.27,91.33c-6.43-6.38-15.23-10.27-26.08-10.27s-19.65,3.89-26.1,10.27c-8.46,8.44-10.17,16.74-10.49,33.78-.06,3.17,2.49,5.78,5.66,5.78s5.58-2.47,5.65-5.55c.32-14.56,1.78-21.23,7.24-26.85,4.77-4.9,10.93-7.46,18.04-7.46s13.25,2.56,18.02,7.46c6.53,6.69,7.34,14.15,7.34,35.64s-.81,28.95-7.34,35.62c-4.77,4.92-10.91,7.48-18.02,7.48s-13.27-2.56-18.04-7.48c-5.22-5.35-6.78-12.52-7.19-25.73-.1-3.06-2.59-5.5-5.65-5.5h0c-3.18,0-5.74,2.64-5.66,5.82.42,15.69,2.31,24.47,10.44,32.6,6.45,6.37,15.25,10.25,26.1,10.25s19.65-3.88,26.08-10.25c9.9-9.9,10.56-18.84,10.56-42.81s-.66-32.92-10.56-42.81"/>
    </g>
  </g>
</svg>
